<svg width="100" height="100" viewBox="0 0 100 100" fill="none" xmlns="http://www.w3.org/2000/svg">
<path d="M43.772 59.3671L60.0362 49.9998L43.772 40.6323V59.3671Z" fill="#600E09"/>
<path d="M25.4208 71.0194C26.7081 71.368 28.8987 71.6211 31.4189 71.809C33.9529 71.998 36.8628 72.1237 39.6134 72.2075C42.3649 72.2913 44.9611 72.3331 46.8693 72.3541C47.8234 72.3645 48.6058 72.3698 49.1497 72.3724C49.4217 72.3737 49.6341 72.3743 49.7786 72.3747L49.9433 72.375L49.9856 72.375L49.9963 72.375H49.999H49.9997C49.9999 72.375 50 72.375 50 71.875C50 72.375 50.0001 72.375 50.0003 72.375H50.001H50.0037L50.0145 72.375L50.0568 72.375L50.2219 72.3747C50.3668 72.3744 50.5797 72.3737 50.8523 72.3725C51.3975 72.37 52.1816 72.3649 53.1377 72.3549C55.0498 72.3347 57.6507 72.2945 60.4052 72.2139C63.1589 72.1334 66.0701 72.0125 68.6014 71.8308C71.1189 71.6501 73.3022 71.4067 74.5758 71.0715L74.5784 71.0708C77.4268 70.3042 79.6715 68.0596 80.4388 65.2111L80.4396 65.2082C81.0974 62.7076 81.4201 58.9026 81.5808 55.7579C81.6615 54.1782 81.7019 52.7524 81.7221 51.7216C81.7321 51.2061 81.7372 50.7891 81.7397 50.5006C81.741 50.3564 81.7416 50.2443 81.7419 50.1682L81.7422 50.0812L81.7422 50.0589V50.0534L81.7422 50.0531L81.7422 50.053L81.7422 50.0516V50.0514V50.0512L81.7423 50.0456L81.7424 50.0231L81.7425 49.9357C81.7426 49.8591 81.7425 49.7465 81.7419 49.6015C81.7407 49.3116 81.7374 48.8925 81.7294 48.3746C81.7133 47.3388 81.6778 45.9065 81.6004 44.3201C81.4462 41.1638 81.1237 37.3445 80.4388 34.8407C79.6716 31.9929 77.4274 29.7476 74.5795 28.9807C73.304 28.6318 71.1195 28.3788 68.6028 28.191C66.0711 28.002 63.1596 27.8763 60.4058 27.7925C57.6511 27.7087 55.0501 27.6669 53.1379 27.6459C52.1818 27.6355 51.3976 27.6302 50.8524 27.6276C50.5797 27.6263 50.3668 27.6257 50.222 27.6253L50.0568 27.625L50.0145 27.625L50.0037 27.625H50.001H50.0003C50.0001 27.625 50 27.625 50 28.125C50 27.625 49.9999 27.625 49.9997 27.625H49.999H49.9963L49.9855 27.625L49.9432 27.625L49.7781 27.6253C49.6332 27.6256 49.4203 27.6263 49.1477 27.6275C48.6025 27.63 47.8184 27.6351 46.8623 27.6451C44.9502 27.6653 42.3493 27.7055 39.5948 27.7861C36.8411 27.8666 33.9299 27.9875 31.3986 28.1692C28.8811 28.35 26.6978 28.5933 25.4242 28.9285L25.4242 28.9284L25.4192 28.9298C22.6223 29.6972 20.3272 31.9939 19.5611 34.8408L19.5604 34.8435C18.9022 37.3442 18.5792 41.1489 18.4184 44.2935C18.3376 45.8731 18.2973 47.2988 18.2771 48.3295C18.267 48.845 18.2619 49.262 18.2594 49.5504C18.2581 49.6946 18.2575 49.8067 18.2572 49.8829L18.2569 49.9697L18.2569 49.9921L18.2569 49.9979L18.2569 49.9994V49.9998C18.2569 49.9999 18.2569 50 18.7569 50C18.2569 50 18.2569 50.0001 18.2569 50.0002V50.0006L18.2569 50.0021L18.2569 50.0079L18.2569 50.0304L18.2572 50.1177C18.2575 50.1943 18.2581 50.3069 18.2594 50.4517C18.2619 50.7414 18.267 51.1602 18.2771 51.6777C18.2973 52.7125 18.3376 54.143 18.4184 55.7259C18.5792 58.8764 18.9021 62.6821 19.5608 65.1578L19.5612 65.1593C20.3284 68.0072 22.5727 70.2526 25.4208 71.0194ZM25.4208 71.0194L25.5515 70.5368L25.4216 71.0196C25.4213 71.0195 25.421 71.0194 25.4208 71.0194ZM0.5 50C0.5 22.6661 22.6661 0.5 50 0.5C77.3339 0.5 99.5 22.6661 99.5 50C99.5 77.3339 77.3339 99.5 50 99.5C22.6661 99.5 0.5 77.3339 0.5 50Z" fill="#600E09" stroke="black"/>
</svg>
